<?xml version="1.0" standalone="no"?>
<!DOCTYPE svg PUBLIC "-//W3C//DTD SVG 20010904//EN"
 "http://www.w3.org/TR/2001/REC-SVG-20010904/DTD/svg10.dtd">
<svg version="1.0" xmlns="http://www.w3.org/2000/svg"
 width="315.000000pt" height="320.000000pt" viewBox="0 0 315.000000 320.000000"
 preserveAspectRatio="xMidYMid meet">
<metadata>
Created by potrace 1.16, written by Peter Selinger 2001-2019
</metadata>
<g transform="translate(0.000000,320.000000) scale(0.100000,-0.100000)"
fill="#000000" stroke="none">
<path d="M81 3146 c-13 -14 -36 -30 -52 -36 l-29 -12 0 -1337 c0 -1252 1
-1338 18 -1371 33 -68 47 -70 412 -70 l324 0 161 -160 161 -160 50 0 50 0 161
160 161 160 624 0 625 0 34 23 c18 12 39 34 46 47 10 19 13 170 13 649 l0 624
139 141 c76 78 146 156 155 173 17 33 13 77 -6 89 -6 4 -8 -2 -3 -15 4 -15 2
-21 -9 -21 -13 0 -43 -39 -38 -47 8 -12 -1 -13 -14 -2 -13 11 -14 9 -9 -17 4
-19 3 -25 -3 -16 -7 10 -19 5 -52 -25 -68 -59 -120 -113 -120 -123 0 -6 -4
-10 -8 -10 -4 0 -41 -32 -80 -71 -58 -57 -71 -75 -67 -93 5 -16 4 -17 -3 -7
-19 27 -166 -123 -155 -157 4 -15 3 -15 -6 -2 -9 13 -16 9 -46 -23 -19 -20
-39 -37 -44 -37 -5 0 -15 -10 -23 -22 -32 -48 -181 -189 -194 -184 -12 5 -12
1 -3 -17 6 -12 8 -19 4 -15 -4 4 -39 -24 -77 -63 -43 -43 -76 -68 -84 -65 -12
5 -12 2 -3 -15 9 -17 8 -20 -2 -14 -9 6 -11 2 -7 -13 4 -13 2 -20 -3 -16 -6 3
-26 -6 -45 -21 -26 -20 -33 -32 -29 -46 5 -14 2 -17 -8 -13 -8 3 -42 -22 -86
-64 -55 -53 -70 -73 -65 -88 5 -15 4 -16 -4 -4 -9 12 -15 10 -37 -12 -15 -15
-24 -32 -20 -38 3 -5 -1 -10 -9 -10 -17 0 -156 -128 -156 -144 0 -6 5 -5 12 2
7 7 16 12 20 12 4 0 -2 -10 -13 -21 -17 -17 -23 -19 -31 -8 -6 10 -7 7 -3 -10
5 -16 4 -21 -4 -17 -15 10 -63 -24 -57 -40 3 -8 -1 -14 -8 -14 -16 0 -96 -71
-96 -84 0 -5 7 -3 15 4 18 15 20 4 2 -14 -7 -7 -18 -11 -25 -8 -6 2 -15 -3
-18 -12 -3 -9 -9 -14 -14 -11 -4 2 -18 -8 -31 -22 l-24 -27 29 18 c16 10 25
13 22 7 -4 -6 -22 -18 -39 -27 -40 -20 -78 -54 -72 -64 3 -4 -1 -7 -8 -7 -6 1
-32 -4 -57 -12 -91 -26 -110 -29 -116 -20 -3 5 -11 9 -18 9 -8 0 -40 12 -72
27 -33 14 -63 26 -67 25 -5 -2 -6 2 -3 6 9 15 -67 86 -79 74 -4 -4 -5 -2 -3 4
1 6 -88 102 -199 212 -112 110 -203 205 -203 211 0 6 -4 11 -8 11 -5 0 -39 29
-76 65 -37 36 -72 65 -77 65 -6 0 -8 4 -4 9 3 5 -13 22 -35 38 -22 16 -40 36
-40 47 0 20 0 20 -15 0 -14 -18 -14 -17 -5 8 12 36 3 37 -11 1 -22 -59 -9 -76
274 -360 196 -197 266 -274 255 -278 -8 -3 -155 -5 -326 -3 l-312 3 -32 33
-33 32 0 1348 0 1347 1405 0 1405 0 1 -373 c1 -323 5 -401 17 -381 1 2 1 174
-1 382 l-2 378 -23 8 c-12 5 -33 21 -46 35 l-24 26 -1322 0 -1322 0 -22 -24z
m2734 -2756 c-29 -56 -11 -55 -664 -58 -333 -1 -610 -1 -616 2 -7 2 281 297
639 655 l651 651 3 -610 c2 -530 0 -615 -13 -640z"/>
</g>
</svg>
